<mxfile host="app.diagrams.net" agent="Mozilla/5.0 (Windows NT 10.0; Win64; x64) AppleWebKit/537.36 (KHTML, like Gecko) Chrome/137.0.0.0 Safari/537.36" version="27.1.6">
  <diagram name="Page-1" id="qvaxa5Xl8NRk1TBXE0ff">
    <mxGraphModel dx="2893" dy="1137" grid="1" gridSize="10" guides="1" tooltips="1" connect="1" arrows="1" fold="1" page="1" pageScale="1" pageWidth="827" pageHeight="1169" math="0" shadow="0">
      <root>
        <mxCell id="0" />
        <mxCell id="1" parent="0" />
        <mxCell id="TsAUVmTVBp9ukdBSRxbh-1" style="edgeStyle=orthogonalEdgeStyle;rounded=0;orthogonalLoop=1;jettySize=auto;html=1;exitX=0.5;exitY=1;exitDx=0;exitDy=0;entryX=0.5;entryY=0;entryDx=0;entryDy=0;" edge="1" parent="1" source="TsAUVmTVBp9ukdBSRxbh-3" target="TsAUVmTVBp9ukdBSRxbh-6">
          <mxGeometry relative="1" as="geometry" />
        </mxCell>
        <mxCell id="TsAUVmTVBp9ukdBSRxbh-2" value="Starting the game" style="edgeLabel;html=1;align=center;verticalAlign=middle;resizable=0;points=[];" vertex="1" connectable="0" parent="TsAUVmTVBp9ukdBSRxbh-1">
          <mxGeometry x="-0.2667" y="1" relative="1" as="geometry">
            <mxPoint as="offset" />
          </mxGeometry>
        </mxCell>
        <mxCell id="TsAUVmTVBp9ukdBSRxbh-3" value="" style="ellipse;whiteSpace=wrap;html=1;aspect=fixed;" vertex="1" parent="1">
          <mxGeometry x="-476.00000000000045" y="410" width="80" height="80" as="geometry" />
        </mxCell>
        <mxCell id="TsAUVmTVBp9ukdBSRxbh-4" style="edgeStyle=orthogonalEdgeStyle;rounded=0;orthogonalLoop=1;jettySize=auto;html=1;exitX=0.5;exitY=1;exitDx=0;exitDy=0;entryX=0.5;entryY=0;entryDx=0;entryDy=0;" edge="1" parent="1" source="TsAUVmTVBp9ukdBSRxbh-6" target="TsAUVmTVBp9ukdBSRxbh-12">
          <mxGeometry relative="1" as="geometry" />
        </mxCell>
        <mxCell id="TsAUVmTVBp9ukdBSRxbh-5" value="Decides to play the game" style="edgeLabel;html=1;align=center;verticalAlign=middle;resizable=0;points=[];" vertex="1" connectable="0" parent="TsAUVmTVBp9ukdBSRxbh-4">
          <mxGeometry x="-0.1667" y="3" relative="1" as="geometry">
            <mxPoint as="offset" />
          </mxGeometry>
        </mxCell>
        <mxCell id="TsAUVmTVBp9ukdBSRxbh-6" value="Main Menu State" style="rounded=0;whiteSpace=wrap;html=1;" vertex="1" parent="1">
          <mxGeometry x="-496.00000000000045" y="550" width="120" height="60" as="geometry" />
        </mxCell>
        <mxCell id="TsAUVmTVBp9ukdBSRxbh-7" style="edgeStyle=orthogonalEdgeStyle;rounded=0;orthogonalLoop=1;jettySize=auto;html=1;exitX=0.5;exitY=1;exitDx=0;exitDy=0;entryX=0.5;entryY=0;entryDx=0;entryDy=0;" edge="1" parent="1" source="TsAUVmTVBp9ukdBSRxbh-12" target="TsAUVmTVBp9ukdBSRxbh-14">
          <mxGeometry relative="1" as="geometry" />
        </mxCell>
        <mxCell id="TsAUVmTVBp9ukdBSRxbh-8" value="All lives depleted" style="edgeLabel;html=1;align=center;verticalAlign=middle;resizable=0;points=[];" vertex="1" connectable="0" parent="TsAUVmTVBp9ukdBSRxbh-7">
          <mxGeometry x="-0.2" y="5" relative="1" as="geometry">
            <mxPoint as="offset" />
          </mxGeometry>
        </mxCell>
        <mxCell id="TsAUVmTVBp9ukdBSRxbh-9" style="edgeStyle=orthogonalEdgeStyle;rounded=0;orthogonalLoop=1;jettySize=auto;html=1;endArrow=none;startFill=0;" edge="1" parent="1">
          <mxGeometry relative="1" as="geometry">
            <mxPoint x="-290.00000000000045" y="720" as="targetPoint" />
            <mxPoint x="-376.00000000000045" y="680" as="sourcePoint" />
          </mxGeometry>
        </mxCell>
        <mxCell id="TsAUVmTVBp9ukdBSRxbh-10" value="player beats the stage.&lt;div&gt;+ switches map&lt;/div&gt;" style="edgeLabel;html=1;align=center;verticalAlign=middle;resizable=0;points=[];" vertex="1" connectable="0" parent="TsAUVmTVBp9ukdBSRxbh-9">
          <mxGeometry x="0.6557" y="-2" relative="1" as="geometry">
            <mxPoint as="offset" />
          </mxGeometry>
        </mxCell>
        <mxCell id="TsAUVmTVBp9ukdBSRxbh-11" style="edgeStyle=orthogonalEdgeStyle;rounded=0;orthogonalLoop=1;jettySize=auto;html=1;endArrow=none;startFill=1;startArrow=block;" edge="1" parent="1" source="TsAUVmTVBp9ukdBSRxbh-12">
          <mxGeometry relative="1" as="geometry">
            <mxPoint x="-290.00000000000045" y="720" as="targetPoint" />
            <Array as="points">
              <mxPoint x="-310.00000000000045" y="720" />
              <mxPoint x="-310.00000000000045" y="720" />
            </Array>
          </mxGeometry>
        </mxCell>
        <mxCell id="TsAUVmTVBp9ukdBSRxbh-12" value="Play State" style="rounded=0;whiteSpace=wrap;html=1;" vertex="1" parent="1">
          <mxGeometry x="-496.00000000000045" y="670" width="120" height="60" as="geometry" />
        </mxCell>
        <mxCell id="TsAUVmTVBp9ukdBSRxbh-13" style="edgeStyle=orthogonalEdgeStyle;rounded=0;orthogonalLoop=1;jettySize=auto;html=1;exitX=0;exitY=0.5;exitDx=0;exitDy=0;entryX=0;entryY=0.5;entryDx=0;entryDy=0;" edge="1" parent="1" source="TsAUVmTVBp9ukdBSRxbh-14" target="TsAUVmTVBp9ukdBSRxbh-6">
          <mxGeometry relative="1" as="geometry">
            <Array as="points">
              <mxPoint x="-570" y="820" />
              <mxPoint x="-570" y="580" />
            </Array>
          </mxGeometry>
        </mxCell>
        <mxCell id="TsAUVmTVBp9ukdBSRxbh-14" value="Game Over State" style="rounded=0;whiteSpace=wrap;html=1;" vertex="1" parent="1">
          <mxGeometry x="-496.00000000000045" y="790" width="120" height="60" as="geometry" />
        </mxCell>
      </root>
    </mxGraphModel>
  </diagram>
</mxfile>
